<!-- save as khelo-india-icon.svg -->
<svg xmlns="http://www.w3.org/2000/svg" viewBox="0 0 128 128" width="128" height="128">
  <!-- background circle -->
  <rect width="128" height="128" rx="16" fill="#ffffff"></rect>

  <!-- tricolor arcs (inspired by India flag colors) -->
  <path d="M64 18
           A46 46 0 0 1 106 64
           L96 64
           A36 36 0 0 0 64 28
           Z" fill="#ff9933"></path>
  <path d="M64 28
           A36 36 0 0 1 92 64
           L80 64
           A24 24 0 0 0 64 40
           Z" fill="#ffffff"></path>
  <path d="M64 40
           A24 24 0 0 1 80 64
           L72 64
           A12 12 0 0 0 64 52
           Z" fill="#138808"></path>

  <!-- stylized athlete (simple running figure) -->
  <g transform="translate(64,64) scale(0.8)">
    <circle cx="0" cy="-18" r="6" fill="#0f2957"></circle>
    <path d="M-2 -12 C-10 0 -6 10 4 6 L10 12" fill="none" stroke="#0f2957" stroke-width="3" stroke-linecap="round" stroke-linejoin="round"></path>
    <path d="M2 -10 C8 2 16 6 8 12" fill="none" stroke="#0f2957" stroke-width="3" stroke-linecap="round" stroke-linejoin="round"></path>
    <path d="M-6 8 L-12 18" fill="none" stroke="#0f2957" stroke-width="3" stroke-linecap="round"></path>
    <path d="M8 12 L16 22" fill="none" stroke="#0f2957" stroke-width="3" stroke-linecap="round"></path>
  </g>

  <!-- text label -->
  <text x="64" y="112" font-family="Helvetica, Arial, sans-serif" font-size="12" text-anchor="middle" fill="#0f2957" font-weight="700">
    KHELO INDIA
  </text>
</svg>
