<svg width="18" height="17" viewBox="0 0 18 17" fill="none" xmlns="http://www.w3.org/2000/svg">
<path d="M0 15.0571V6.31428C0 6.00667 0.0798748 5.71524 0.239625 5.44C0.399375 5.16476 0.6195 4.93809 0.9 4.76L7.65 0.388571C8.04375 0.129524 8.49375 0 9 0C9.50625 0 9.95625 0.129524 10.35 0.388571L17.1 4.76C17.3812 4.93809 17.6017 5.16476 17.7615 5.44C17.9212 5.71524 18.0007 6.00667 18 6.31428V15.0571C18 15.5914 17.7795 16.049 17.3385 16.4298C16.8975 16.8106 16.368 17.0006 15.75 17H12.375C12.0562 17 11.7892 16.9067 11.574 16.7202C11.3587 16.5337 11.2507 16.3032 11.25 16.0286V11.1714C11.25 10.8962 11.142 10.6656 10.926 10.4798C10.71 10.2939 10.443 10.2006 10.125 10.2H7.875C7.55625 10.2 7.28925 10.2933 7.074 10.4798C6.85875 10.6663 6.75075 10.8968 6.75 11.1714V16.0286C6.75 16.3038 6.642 16.5347 6.426 16.7212C6.21 16.9077 5.943 17.0006 5.625 17H2.25C1.63125 17 1.10175 16.8099 0.6615 16.4298C0.22125 16.0496 0.00075 15.5921 0 15.0571Z" fill="white"/>
</svg>
